<svg xmlns="http://www.w3.org/2000/svg" width="1000" height="500" style="background:#fff; font-family:sans-serif;">
<text x="500" y="30" text-anchor="middle" font-size="18" font-weight="bold" fill="#333">Total Sales by Product Category</text>
<line x1="100" y1="420.0" x2="950" y2="420.0" stroke="#e0e0e0" stroke-width="1"/>
<text x="90" y="424.0" text-anchor="end" font-size="12" fill="#666">$0</text>
<line x1="100" y1="348.0" x2="950" y2="348.0" stroke="#e0e0e0" stroke-width="1"/>
<text x="90" y="352.0" text-anchor="end" font-size="12" fill="#666">$690,131</text>
<line x1="100" y1="276.0" x2="950" y2="276.0" stroke="#e0e0e0" stroke-width="1"/>
<text x="90" y="280.0" text-anchor="end" font-size="12" fill="#666">$1,380,263</text>
<line x1="100" y1="204.0" x2="950" y2="204.0" stroke="#e0e0e0" stroke-width="1"/>
<text x="90" y="208.0" text-anchor="end" font-size="12" fill="#666">$2,070,394</text>
<line x1="100" y1="132.0" x2="950" y2="132.0" stroke="#e0e0e0" stroke-width="1"/>
<text x="90" y="136.0" text-anchor="end" font-size="12" fill="#666">$2,760,525</text>
<line x1="100" y1="60.0" x2="950" y2="60.0" stroke="#e0e0e0" stroke-width="1"/>
<text x="90" y="64.0" text-anchor="end" font-size="12" fill="#666">$3,450,657</text>
<rect x="114.16666666666667" y="353.53105284024406" width="66.1111111111111" height="66.46894715975596" fill="#3182bd" rx="3"/>
<text x="147.22222222222223" y="348.53105284024406" text-anchor="middle" font-size="11" font-weight="bold" fill="#333">$637,115</text>
<text x="147.22222222222223" y="440" text-anchor="end" font-size="11" fill="#444" transform="rotate(-25, 147.22222222222223, 440)">Acne Treatments</text>
<rect x="208.61111111111111" y="156.2574585441369" width="66.1111111111111" height="263.7425414558631" fill="#6baed6" rx="3"/>
<text x="241.66666666666666" y="151.2574585441369" text-anchor="middle" font-size="11" font-weight="bold" fill="#333">$2,528,014</text>
<text x="241.66666666666666" y="440" text-anchor="end" font-size="11" fill="#444" transform="rotate(-25, 241.66666666666666, 440)">Anti-Aging Products</text>
<rect x="303.0555555555556" y="307.6434098778173" width="66.1111111111111" height="112.35659012218271" fill="#9ecae1" rx="3"/>
<text x="336.11111111111114" y="302.6434098778173" text-anchor="middle" font-size="11" font-weight="bold" fill="#333">$1,076,956</text>
<text x="336.11111111111114" y="440" text-anchor="end" font-size="11" fill="#444" transform="rotate(-25, 336.11111111111114, 440)">Cleansers</text>
<rect x="397.5" y="312.98838731756064" width="66.1111111111111" height="107.01161268243939" fill="#c6dbef" rx="3"/>
<text x="430.55555555555554" y="307.98838731756064" text-anchor="middle" font-size="11" font-weight="bold" fill="#333">$1,025,723</text>
<text x="430.55555555555554" y="440" text-anchor="end" font-size="11" fill="#444" transform="rotate(-25, 430.55555555555554, 440)">Eye Creams</text>
<rect x="491.94444444444446" y="365.04424511478345" width="66.1111111111111" height="54.95575488521654" fill="#e6550d" rx="3"/>
<text x="525.0" y="360.04424511478345" text-anchor="middle" font-size="11" font-weight="bold" fill="#333">$526,760</text>
<text x="525.0" y="440" text-anchor="end" font-size="11" fill="#444" transform="rotate(-25, 525.0, 440)">Face Masks</text>
<rect x="586.3888888888888" y="221.21563134594797" width="66.1111111111111" height="198.78436865405203" fill="#fd8d3c" rx="3"/>
<text x="619.4444444444443" y="216.21563134594797" text-anchor="middle" font-size="11" font-weight="bold" fill="#333">$1,905,379</text>
<text x="619.4444444444443" y="440" text-anchor="end" font-size="11" fill="#444" transform="rotate(-25, 619.4444444444443, 440)">Moisturizers</text>
<rect x="680.8333333333333" y="60.0" width="66.1111111111111" height="360.0" fill="#fdae6b" rx="3"/>
<text x="713.8888888888888" y="55.0" text-anchor="middle" font-size="11" font-weight="bold" fill="#333">$3,450,657</text>
<text x="713.8888888888888" y="440" text-anchor="end" font-size="11" fill="#444" transform="rotate(-25, 713.8888888888888, 440)">Serums</text>
<rect x="775.2777777777777" y="242.094345370194" width="66.1111111111111" height="177.905654629806" fill="#fdd0a2" rx="3"/>
<text x="808.3333333333333" y="237.094345370194" text-anchor="middle" font-size="11" font-weight="bold" fill="#333">$1,705,254</text>
<text x="808.3333333333333" y="440" text-anchor="end" font-size="11" fill="#444" transform="rotate(-25, 808.3333333333333, 440)">Sunscreens</text>
<rect x="869.7222222222222" y="360.32464290434507" width="66.1111111111111" height="59.675357095654945" fill="#31a354" rx="3"/>
<text x="902.7777777777777" y="355.32464290434507" text-anchor="middle" font-size="11" font-weight="bold" fill="#333">$571,998</text>
<text x="902.7777777777777" y="440" text-anchor="end" font-size="11" fill="#444" transform="rotate(-25, 902.7777777777777, 440)">Toners</text>
<line x1="100" y1="420" x2="950" y2="420" stroke="#888" stroke-width="2"/>
<line x1="100" y1="60" x2="100" y2="420" stroke="#888" stroke-width="2"/>
</svg>