<svg xmlns="http://www.w3.org/2000/svg" width="1100" height="420" viewBox="0 0 1100 420">
<rect width="100%" height="100%" fill="#ffffff"/>
<text x="70" y="28" font-size="20" font-family="Arial" font-weight="700">Daily Total Sales, 2023-2025</text>
<line x1="70" y1="48.0" x2="1076" y2="48.0" stroke="#e8e8e8"/><text x="62" y="52.0" text-anchor="end" font-size="11">$40,602</text><line x1="70" y1="127.5" x2="1076" y2="127.5" stroke="#e8e8e8"/><text x="62" y="131.5" text-anchor="end" font-size="11">$30,452</text><line x1="70" y1="207.0" x2="1076" y2="207.0" stroke="#e8e8e8"/><text x="62" y="211.0" text-anchor="end" font-size="11">$20,301</text><line x1="70" y1="286.5" x2="1076" y2="286.5" stroke="#e8e8e8"/><text x="62" y="290.5" text-anchor="end" font-size="11">$10,151</text><line x1="70" y1="366.0" x2="1076" y2="366.0" stroke="#e8e8e8"/><text x="62" y="370.0" text-anchor="end" font-size="11">$0</text>
<polyline fill="none" stroke="#1f77b4" stroke-width="2.4" points="70.0,366.0 70.9,275.8 71.8,278.1 72.8,272.2 73.7,278.2 74.6,249.5 75.5,246.7 76.4,288.4 77.3,293.5 78.3,288.7 79.2,302.3 80.1,282.4 81.0,271.5 81.9,288.0 82.9,310.7 83.8,298.4 84.7,316.8 85.6,280.4 86.5,283.1 87.5,298.0 88.4,253.9 89.3,297.4 90.2,304.1 91.1,307.0 92.0,313.2 93.0,293.8 93.9,276.6 94.8,274.9 95.7,320.3 96.6,298.0 97.6,282.0 98.5,308.9 99.4,288.4 100.3,295.7 101.2,303.6 102.2,301.7 103.1,301.1 104.0,297.1 104.9,292.9 105.8,289.2 106.7,237.2 107.7,263.8 108.6,290.5 109.5,306.7 110.4,283.7 111.3,299.5 112.3,302.5 113.2,299.8 114.1,269.8 115.0,309.8 115.9,324.7 116.9,307.8 117.8,300.4 118.7,301.1 119.6,286.4 120.5,311.7 121.4,295.1 122.4,321.6 123.3,299.8 124.2,289.8 125.1,280.6 126.0,305.9 127.0,282.0 127.9,305.9 128.8,313.3 129.7,315.3 130.6,296.4 131.6,292.9 132.5,288.7 133.4,281.0 134.3,297.7 135.2,280.8 136.1,310.7 137.1,295.2 138.0,291.2 138.9,277.0 139.8,302.2 140.7,296.8 141.7,272.8 142.6,274.6 143.5,290.1 144.4,251.7 145.3,284.7 146.3,273.4 147.2,286.0 148.1,314.8 149.0,307.0 149.9,323.2 150.8,300.9 151.8,283.2 152.7,299.8 153.6,310.5 154.5,330.2 155.4,302.9 156.4,318.6 157.3,311.4 158.2,285.0 159.1,285.0 160.0,292.1 161.0,310.8 161.9,312.1 162.8,302.1 163.7,307.6 164.6,288.2 165.5,291.0 166.5,319.5 167.4,324.2 168.3,311.3 169.2,305.6 170.1,309.1 171.1,304.7 172.0,310.9 172.9,323.8 173.8,334.3 174.7,293.9 175.7,303.9 176.6,307.8 177.5,315.8 178.4,285.8 179.3,309.7 180.2,285.6 181.2,303.2 182.1,307.7 183.0,283.2 183.9,288.7 184.8,292.6 185.8,302.3 186.7,315.9 187.6,316.1 188.5,295.3 189.4,305.9 190.4,306.1 191.3,279.8 192.2,310.3 193.1,292.3 194.0,314.7 194.9,296.3 195.9,303.9 196.8,301.0 197.7,283.0 198.6,301.2 199.5,309.4 200.5,294.9 201.4,269.2 202.3,275.1 203.2,243.8 204.1,231.7 205.1,276.5 206.0,275.1 206.9,296.2 207.8,248.8 208.7,284.0 209.6,271.6 210.6,277.5 211.5,308.5 212.4,303.5 213.3,285.4 214.2,306.7 215.2,304.5 216.1,288.2 217.0,270.3 217.9,296.1 218.8,301.5 219.8,296.1 220.7,305.1 221.6,285.4 222.5,241.9 223.4,241.1 224.3,276.3 225.3,262.2 226.2,275.1 227.1,260.8 228.0,261.6 228.9,267.2 229.9,264.1 230.8,292.6 231.7,273.9 232.6,258.8 233.5,252.2 234.5,229.3 235.4,273.0 236.3,247.9 237.2,268.1 238.1,257.6 239.0,281.8 240.0,253.6 240.9,251.9 241.8,218.1 242.7,242.4 243.6,316.7 244.6,302.1 245.5,309.4 246.4,304.5 247.3,309.3 248.2,277.0 249.2,243.3 250.1,312.4 251.0,310.7 251.9,314.2 252.8,311.1 253.7,285.1 254.7,283.9 255.6,303.2 256.5,305.5 257.4,328.8 258.3,304.7 259.3,292.5 260.2,280.9 261.1,290.2 262.0,269.5 262.9,295.1 263.9,298.1 264.8,327.0 265.7,315.3 266.6,274.4 267.5,291.1 268.4,285.1 269.4,315.7 270.3,300.8 271.2,301.0 272.1,310.6 273.0,305.9 274.0,282.6 274.9,269.6 275.8,328.0 276.7,313.6 277.6,302.7 278.5,292.6 279.5,301.8 280.4,285.4 281.3,294.2 282.2,288.5 283.1,317.0 284.1,295.3 285.0,306.2 285.9,282.5 286.8,284.5 287.7,277.9 288.7,289.4 289.6,312.5 290.5,293.4 291.4,302.6 292.3,289.3 293.2,271.6 294.2,265.1 295.1,284.2 296.0,295.7 296.9,285.0 297.8,296.1 298.8,285.4 299.7,292.6 300.6,286.6 301.5,274.4 302.4,292.6 303.4,301.7 304.3,302.1 305.2,276.8 306.1,303.1 307.0,304.0 307.9,308.4 308.9,310.7 309.8,308.4 310.7,299.0 311.6,291.9 312.5,293.7 313.5,262.0 314.4,279.3 315.3,309.3 316.2,295.1 317.1,302.9 318.1,291.7 319.0,306.3 319.9,282.6 320.8,301.9 321.7,304.2 322.6,295.5 323.6,312.6 324.5,286.1 325.4,272.0 326.3,256.1 327.2,321.5 328.2,295.6 329.1,291.3 330.0,279.0 330.9,292.1 331.8,290.5 332.8,274.6 333.7,323.6 334.6,301.4 335.5,313.8 336.4,297.7 337.3,306.9 338.3,308.2 339.2,282.9 340.1,315.2 341.0,315.2 341.9,285.9 342.9,308.0 343.8,304.6 344.7,291.2 345.6,312.8 346.5,302.3 347.5,338.4 348.4,312.5 349.3,248.1 350.2,255.2 351.1,271.2 352.0,239.3 353.0,272.5 353.9,248.7 354.8,261.3 355.7,265.2 356.6,266.9 357.6,171.0 358.5,154.9 359.4,229.4 360.3,231.9 361.2,193.2 362.2,216.6 363.1,268.0 364.0,221.3 364.9,231.6 365.8,236.5 366.7,257.2 367.7,260.6 368.6,226.1 369.5,214.2 370.4,137.2 371.3,119.2 372.3,148.2 373.2,178.3 374.1,174.0 375.0,149.4 375.9,154.7 376.9,252.3 377.8,237.8 378.7,260.6 379.6,281.7 380.5,232.8 381.4,212.4 382.4,202.6 383.3,190.2 384.2,146.8 385.1,239.8 386.0,235.5 387.0,216.1 387.9,201.4 388.8,224.4 389.7,197.9 390.6,171.4 391.6,226.3 392.5,240.9 393.4,227.6 394.3,194.9 395.2,274.5 396.1,256.0 397.1,242.8 398.0,286.6 398.9,271.7 399.8,276.6 400.7,249.3 401.7,266.4 402.6,268.2 403.5,237.4 404.4,282.1 405.3,261.1 406.3,278.3 407.2,239.5 408.1,221.5 409.0,232.4 409.9,226.9 410.8,260.7 411.8,236.1 412.7,243.9 413.6,268.2 414.5,284.7 415.4,292.2 416.4,273.9 417.3,291.3 418.2,292.5 419.1,298.2 420.0,269.9 421.0,275.1 421.9,249.7 422.8,237.1 423.7,283.3 424.6,272.9 425.5,259.2 426.5,283.6 427.4,282.6 428.3,282.7 429.2,268.0 430.1,267.1 431.1,292.6 432.0,298.6 432.9,272.1 433.8,261.6 434.7,262.1 435.7,274.4 436.6,304.6 437.5,286.2 438.4,292.7 439.3,293.1 440.2,309.5 441.2,265.7 442.1,251.8 443.0,275.2 443.9,247.8 444.8,286.4 445.8,271.3 446.7,256.0 447.6,304.6 448.5,303.9 449.4,283.3 450.4,307.5 451.3,298.9 452.2,274.8 453.1,279.9 454.0,304.2 454.9,258.2 455.9,293.4 456.8,301.0 457.7,294.3 458.6,293.1 459.5,284.7 460.5,258.1 461.4,260.5 462.3,280.3 463.2,266.3 464.1,290.1 465.1,283.9 466.0,306.3 466.9,249.9 467.8,286.7 468.7,304.7 469.6,309.7 470.6,288.0 471.5,296.2 472.4,267.3 473.3,262.1 474.2,299.8 475.2,284.5 476.1,292.8 477.0,291.5 477.9,272.5 478.8,270.2 479.7,240.2 480.7,246.4 481.6,278.9 482.5,259.9 483.4,265.7 484.3,265.9 485.3,295.2 486.2,259.4 487.1,268.5 488.0,278.4 488.9,291.8 489.9,299.4 490.8,286.9 491.7,292.8 492.6,286.2 493.5,273.5 494.4,312.7 495.4,293.2 496.3,323.2 497.2,294.8 498.1,298.9 499.0,274.9 500.0,291.0 500.9,311.5 501.8,307.8 502.7,311.0 503.6,312.5 504.6,276.3 505.5,282.8 506.4,270.9 507.3,312.8 508.2,286.6 509.1,291.2 510.1,308.1 511.0,282.6 511.9,286.1 512.8,281.2 513.7,311.7 514.7,304.9 515.6,286.9 516.5,275.6 517.4,298.0 518.3,284.3 519.3,273.4 520.2,272.9 521.1,274.2 522.0,319.7 522.9,280.6 523.8,264.0 524.8,273.4 525.7,266.9 526.6,285.5 527.5,274.7 528.4,256.6 529.4,296.9 530.3,278.6 531.2,269.3 532.1,243.7 533.0,323.4 534.0,296.9 534.9,301.2 535.8,251.9 536.7,300.6 537.6,236.3 538.5,233.9 539.5,255.3 540.4,255.8 541.3,249.9 542.2,258.2 543.1,236.5 544.1,230.3 545.0,275.1 545.9,302.1 546.8,275.2 547.7,297.5 548.7,280.2 549.6,308.9 550.5,273.8 551.4,285.3 552.3,280.6 553.2,288.9 554.2,282.7 555.1,268.0 556.0,252.0 556.9,281.2 557.8,211.1 558.8,265.1 559.7,239.5 560.6,264.3 561.5,225.5 562.4,224.8 563.4,231.7 564.3,216.4 565.2,265.3 566.1,238.7 567.0,240.6 567.9,242.3 568.9,247.6 569.8,236.8 570.7,226.2 571.6,254.5 572.5,255.5 573.5,256.9 574.4,238.4 575.3,214.3 576.2,233.4 577.1,214.7 578.1,262.2 579.0,268.6 579.9,268.5 580.8,273.8 581.7,277.4 582.6,272.5 583.6,276.8 584.5,276.3 585.4,272.4 586.3,300.6 587.2,268.6 588.2,285.4 589.1,264.9 590.0,262.9 590.9,279.9 591.8,302.7 592.8,295.8 593.7,249.8 594.6,283.4 595.5,280.6 596.4,269.1 597.3,294.9 598.3,293.0 599.2,295.5 600.1,278.5 601.0,287.6 601.9,279.5 602.9,251.7 603.8,290.1 604.7,268.5 605.6,288.5 606.5,289.2 607.5,292.0 608.4,313.8 609.3,274.5 610.2,298.8 611.1,298.6 612.0,303.7 613.0,315.7 613.9,271.9 614.8,290.8 615.7,267.5 616.6,287.8 617.6,287.6 618.5,292.3 619.4,292.2 620.3,308.6 621.2,283.1 622.2,277.8 623.1,310.5 624.0,301.3 624.9,285.2 625.8,267.4 626.7,267.4 627.7,285.4 628.6,297.4 629.5,276.0 630.4,316.8 631.3,278.8 632.3,275.8 633.2,259.4 634.1,255.1 635.0,269.4 635.9,301.3 636.9,296.5 637.8,290.8 638.7,296.5 639.6,294.0 640.5,259.7 641.4,275.2 642.4,287.5 643.3,290.1 644.2,309.9 645.1,292.5 646.0,307.2 647.0,267.4 647.9,275.0 648.8,270.8 649.7,291.0 650.6,306.1 651.6,290.6 652.5,277.1 653.4,283.4 654.3,287.1 655.2,281.7 656.1,309.6 657.1,305.2 658.0,291.2 658.9,287.3 659.8,273.9 660.7,286.6 661.7,283.8 662.6,318.2 663.5,267.9 664.4,285.4 665.3,279.6 666.3,285.2 667.2,282.6 668.1,296.8 669.0,299.2 669.9,279.7 670.8,292.2 671.8,284.1 672.7,286.7 673.6,288.9 674.5,279.3 675.4,299.6 676.4,297.7 677.3,289.3 678.2,273.4 679.1,254.4 680.0,275.6 680.9,290.4 681.9,310.4 682.8,300.5 683.7,295.2 684.6,272.2 685.5,219.0 686.5,220.0 687.4,257.9 688.3,251.9 689.2,249.4 690.1,230.5 691.1,218.8 692.0,239.7 692.9,206.1 693.8,203.0 694.7,192.7 695.6,177.7 696.6,169.2 697.5,179.2 698.4,132.2 699.3,246.3 700.2,252.1 701.2,261.5 702.1,223.0 703.0,215.9 703.9,211.8 704.8,177.7 705.8,153.2 706.7,154.3 707.6,183.3 708.5,132.2 709.4,137.5 710.3,141.2 711.3,99.3 712.2,124.0 713.1,241.1 714.0,251.6 714.9,236.9 715.9,265.6 716.8,209.1 717.7,159.0 718.6,202.9 719.5,189.3 720.5,189.1 721.4,207.5 722.3,184.7 723.2,169.1 724.1,146.1 725.0,147.5 726.0,191.0 726.9,189.3 727.8,198.9 728.7,216.7 729.6,188.7 730.6,155.2 731.5,181.9 732.4,221.6 733.3,256.8 734.2,239.7 735.2,239.0 736.1,231.4 737.0,193.2 737.9,184.8 738.8,251.4 739.7,256.6 740.7,259.0 741.6,225.0 742.5,246.6 743.4,225.7 744.3,234.2 745.3,260.3 746.2,241.3 747.1,263.7 748.0,245.0 748.9,277.6 749.9,256.3 750.8,231.7 751.7,259.5 752.6,285.6 753.5,259.6 754.4,254.6 755.4,269.7 756.3,246.2 757.2,224.4 758.1,265.2 759.0,277.3 760.0,249.7 760.9,230.5 761.8,284.6 762.7,262.3 763.6,241.2 764.6,284.3 765.5,280.0 766.4,250.9 767.3,251.6 768.2,276.3 769.1,250.3 770.1,275.8 771.0,322.7 771.9,310.5 772.8,295.1 773.7,278.3 774.7,281.9 775.6,265.6 776.5,265.5 777.4,313.2 778.3,252.2 779.3,250.0 780.2,239.1 781.1,228.2 782.0,220.8 782.9,267.8 783.8,297.3 784.8,294.6 785.7,288.0 786.6,278.1 787.5,278.6 788.4,255.6 789.4,257.5 790.3,291.0 791.2,277.2 792.1,294.2 793.0,275.5 794.0,308.7 794.9,297.8 795.8,257.1 796.7,286.1 797.6,263.5 798.5,265.0 799.5,268.4 800.4,263.3 801.3,249.0 802.2,257.4 803.1,257.6 804.1,293.1 805.0,273.5 805.9,289.8 806.8,280.6 807.7,269.7 808.7,292.4 809.6,267.3 810.5,276.4 811.4,278.0 812.3,275.6 813.2,253.4 814.2,259.7 815.1,238.8 816.0,247.8 816.9,307.9 817.8,287.1 818.8,246.0 819.7,286.5 820.6,280.8 821.5,275.8 822.4,295.7 823.4,303.8 824.3,325.6 825.2,298.2 826.1,279.7 827.0,282.8 827.9,261.5 828.9,279.9 829.8,306.7 830.7,280.1 831.6,279.8 832.5,269.7 833.5,276.9 834.4,272.6 835.3,271.1 836.2,303.8 837.1,297.3 838.1,281.3 839.0,299.8 839.9,253.2 840.8,283.7 841.7,315.7 842.6,298.8 843.6,292.9 844.5,286.8 845.4,280.5 846.3,291.5 847.2,268.0 848.2,299.6 849.1,277.3 850.0,285.4 850.9,279.5 851.8,246.2 852.8,277.0 853.7,276.6 854.6,275.5 855.5,280.1 856.4,301.5 857.3,248.1 858.3,233.6 859.2,273.0 860.1,214.6 861.0,290.0 861.9,274.0 862.9,285.4 863.8,269.2 864.7,255.3 865.6,270.2 866.5,266.1 867.5,287.0 868.4,273.0 869.3,303.8 870.2,287.6 871.1,283.6 872.0,284.2 873.0,233.8 873.9,239.1 874.8,281.1 875.7,233.0 876.6,243.5 877.6,214.0 878.5,211.6 879.4,188.7 880.3,297.9 881.2,295.8 882.1,275.3 883.1,260.7 884.0,284.0 884.9,241.5 885.8,256.9 886.7,278.1 887.7,285.0 888.6,283.2 889.5,238.9 890.4,284.8 891.3,244.4 892.3,232.8 893.2,242.7 894.1,241.7 895.0,244.0 895.9,248.2 896.8,235.7 897.8,202.9 898.7,205.0 899.6,223.8 900.5,245.6 901.4,246.1 902.4,224.3 903.3,244.8 904.2,227.1 905.1,228.9 906.0,250.6 907.0,252.0 907.9,241.9 908.8,232.8 909.7,235.4 910.6,218.4 911.5,205.2 912.5,227.9 913.4,230.8 914.3,237.9 915.2,292.2 916.1,286.0 917.1,260.4 918.0,244.4 918.9,274.4 919.8,283.8 920.7,290.7 921.7,269.6 922.6,274.6 923.5,230.7 924.4,260.0 925.3,297.8 926.2,287.0 927.2,275.0 928.1,275.2 929.0,288.6 929.9,255.8 930.8,271.8 931.8,290.1 932.7,262.0 933.6,269.9 934.5,271.5 935.4,289.2 936.4,277.5 937.3,262.1 938.2,275.9 939.1,285.0 940.0,280.0 940.9,291.4 941.9,250.1 942.8,282.9 943.7,243.6 944.6,288.2 945.5,316.7 946.5,263.7 947.4,265.1 948.3,272.0 949.2,261.3 950.1,281.6 951.1,299.1 952.0,284.9 952.9,265.6 953.8,270.8 954.7,282.1 955.6,270.6 956.6,264.3 957.5,279.5 958.4,285.0 959.3,293.7 960.2,304.9 961.2,277.5 962.1,253.3 963.0,262.1 963.9,288.5 964.8,284.0 965.8,284.5 966.7,268.5 967.6,264.5 968.5,248.0 969.4,225.7 970.3,280.4 971.3,279.6 972.2,305.8 973.1,298.2 974.0,254.2 974.9,301.8 975.9,246.9 976.8,260.5 977.7,295.3 978.6,286.8 979.5,271.6 980.5,267.0 981.4,273.1 982.3,255.5 983.2,261.6 984.1,290.3 985.0,294.7 986.0,284.3 986.9,269.4 987.8,277.1 988.7,275.6 989.6,289.8 990.6,293.1 991.5,264.6 992.4,266.5 993.3,280.3 994.2,228.7 995.2,253.4 996.1,250.4 997.0,299.3 997.9,270.4 998.8,291.7 999.7,253.8 1000.7,269.8 1001.6,262.5 1002.5,247.9 1003.4,296.7 1004.3,290.7 1005.3,252.8 1006.2,285.9 1007.1,271.6 1008.0,260.4 1008.9,287.1 1009.9,308.3 1010.8,285.1 1011.7,258.4 1012.6,284.0 1013.5,275.2 1014.4,257.7 1015.4,292.4 1016.3,278.4 1017.2,268.4 1018.1,280.8 1019.0,295.9 1020.0,290.7 1020.9,188.9 1021.8,207.3 1022.7,231.3 1023.6,246.0 1024.6,225.4 1025.5,176.5 1026.4,206.3 1027.3,209.1 1028.2,255.9 1029.1,167.9 1030.1,172.9 1031.0,191.9 1031.9,149.1 1032.8,139.2 1033.7,125.0 1034.7,218.9 1035.6,255.0 1036.5,241.1 1037.4,232.3 1038.3,188.3 1039.3,173.6 1040.2,141.0 1041.1,182.9 1042.0,132.4 1042.9,153.2 1043.8,141.6 1044.8,107.5 1045.7,70.3 1046.6,48.0 1047.5,145.3 1048.4,256.0 1049.4,226.6 1050.3,240.3 1051.2,202.2 1052.1,151.0 1053.0,119.3 1054.0,192.4 1054.9,187.0 1055.8,193.7 1056.7,163.2 1057.6,101.0 1058.5,125.5 1059.5,144.5 1060.4,192.8 1061.3,204.8 1062.2,177.0 1063.1,173.5 1064.1,147.8 1065.0,150.6 1065.9,145.0 1066.8,250.5 1067.7,238.5 1068.7,275.4 1069.6,260.0 1070.5,259.8 1071.4,173.9 1072.3,232.5 1073.2,240.7 1074.2,237.4 1075.1,216.2 1076.0,238.5"/>
<line x1="70" y1="366" x2="1076" y2="366" stroke="#333"/>
<line x1="70" y1="48" x2="70" y2="366" stroke="#333"/>
<text x="70.0" y="400" text-anchor="middle" font-size="11">2023-01-01</text><text x="321.7" y="400" text-anchor="middle" font-size="11">2023-10-02</text><text x="573.5" y="400" text-anchor="middle" font-size="11">2024-07-02</text><text x="825.2" y="400" text-anchor="middle" font-size="11">2025-04-02</text><text x="1076.0" y="400" text-anchor="middle" font-size="11">2025-12-31</text>
</svg>
