
    <svg xmlns="http://www.w3.org/2000/svg" width="1100" height="450">
        <rect width="100%" height="100%" fill="white"/>
        <text x="70" y="30" font-size="18" font-family="Arial" font-weight="700">Daily Total Sales, 2023-2025</text>
        <line x1="70" y1="50.0" x2="1060" y2="50.0" stroke="#e8e8e8"/><text x="62" y="54.0" text-anchor="end" font-size="11">$40,602</text><line x1="70" y1="130.0" x2="1060" y2="130.0" stroke="#e8e8e8"/><text x="62" y="134.0" text-anchor="end" font-size="11">$30,452</text><line x1="70" y1="210.0" x2="1060" y2="210.0" stroke="#e8e8e8"/><text x="62" y="214.0" text-anchor="end" font-size="11">$20,301</text><line x1="70" y1="290.0" x2="1060" y2="290.0" stroke="#e8e8e8"/><text x="62" y="294.0" text-anchor="end" font-size="11">$10,151</text><line x1="70" y1="370.0" x2="1060" y2="370.0" stroke="#e8e8e8"/><text x="62" y="374.0" text-anchor="end" font-size="11">$0</text>
        <polyline fill="none" stroke="#1f77b4" stroke-width="3" points="70.0,370.0 70.9,279.2 71.8,281.5 72.7,275.6 73.6,281.6 74.5,252.7 75.4,250.0 76.3,291.9 77.2,297.1 78.1,292.3 79.0,305.9 79.9,285.9 80.8,274.9 81.8,291.5 82.7,314.4 83.6,301.9 84.5,320.5 85.4,283.9 86.3,286.6 87.2,301.6 88.1,257.2 89.0,301.0 89.9,307.7 90.8,310.6 91.7,316.8 92.6,297.3 93.5,280.0 94.4,278.4 95.3,324.0 96.2,301.5 97.1,285.5 98.0,312.6 98.9,291.9 99.8,299.2 100.7,307.2 101.6,305.3 102.5,304.7 103.5,300.7 104.4,296.5 105.3,292.7 106.2,240.4 107.1,267.2 108.0,294.0 108.9,310.3 109.8,287.1 110.7,303.1 111.6,306.1 112.5,303.4 113.4,273.2 114.3,313.5 115.2,328.5 116.1,311.4 117.0,304.0 117.9,304.7 118.8,289.9 119.7,315.3 120.6,298.7 121.5,325.3 122.4,303.4 123.3,293.3 124.2,284.1 125.2,309.6 126.1,285.5 127.0,309.5 127.9,317.0 128.8,319.0 129.7,299.9 130.6,296.4 131.5,292.3 132.4,284.5 133.3,301.2 134.2,284.3 135.1,314.3 136.0,298.8 136.9,294.7 137.8,280.5 138.7,305.8 139.6,300.3 140.5,276.2 141.4,278.0 142.3,293.6 143.2,255.0 144.1,288.2 145.0,276.8 145.9,289.5 146.8,318.5 147.8,310.7 148.7,326.9 149.6,304.5 150.5,286.6 151.4,303.4 152.3,314.2 153.2,334.0 154.1,306.6 155.0,322.3 155.9,315.0 156.8,288.5 157.7,288.5 158.6,295.6 159.5,314.4 160.4,315.8 161.3,305.7 162.2,311.3 163.1,291.7 164.0,294.6 164.9,323.2 165.8,328.0 166.7,315.0 167.6,309.2 168.5,312.7 169.5,308.3 170.4,314.6 171.3,327.5 172.2,338.1 173.1,297.5 174.0,307.5 174.9,311.4 175.8,319.4 176.7,289.3 177.6,313.4 178.5,289.1 179.4,306.8 180.3,311.3 181.2,286.7 182.1,292.2 183.0,296.2 183.9,305.9 184.8,319.6 185.7,319.8 186.6,298.8 187.5,309.5 188.4,309.8 189.3,283.3 190.2,314.0 191.2,295.9 192.1,318.4 193.0,299.9 193.9,307.5 194.8,304.6 195.7,286.5 196.6,304.8 197.5,313.1 198.4,298.5 199.3,272.6 200.2,278.6 201.1,247.1 202.0,234.8 202.9,280.0 203.8,278.6 204.7,299.8 205.6,252.1 206.5,287.4 207.4,275.0 208.3,280.9 209.2,312.2 210.1,307.1 211.0,288.9 211.9,310.3 212.8,308.1 213.8,291.7 214.7,273.7 215.6,299.7 216.5,305.1 217.4,299.7 218.3,308.7 219.2,288.9 220.1,245.1 221.0,244.3 221.9,279.7 222.8,265.5 223.7,278.5 224.6,264.2 225.5,265.0 226.4,270.6 227.3,267.4 228.2,296.1 229.1,277.4 230.0,262.1 230.9,255.5 231.8,232.5 232.7,276.4 233.6,251.2 234.5,271.5 235.5,260.9 236.4,285.3 237.3,256.9 238.2,255.2 239.1,221.1 240.0,245.7 240.9,320.4 241.8,305.7 242.7,313.1 243.6,308.1 244.5,313.0 245.4,280.5 246.3,246.6 247.2,316.1 248.1,314.3 249.0,317.9 249.9,314.7 250.8,288.6 251.7,287.4 252.6,306.8 253.5,309.2 254.4,332.6 255.3,308.3 256.2,296.1 257.2,284.4 258.1,293.7 259.0,272.9 259.9,298.6 260.8,301.7 261.7,330.8 262.6,319.0 263.5,277.9 264.4,294.6 265.3,288.6 266.2,319.4 267.1,304.3 268.0,304.6 268.9,314.2 269.8,309.5 270.7,286.0 271.6,273.0 272.5,331.8 273.4,317.3 274.3,306.3 275.2,296.2 276.1,305.4 277.0,288.9 277.9,297.7 278.8,292.0 279.8,320.7 280.7,298.8 281.6,309.8 282.5,286.0 283.4,287.9 284.3,281.3 285.2,292.9 286.1,316.2 287.0,296.9 287.9,306.2 288.8,292.8 289.7,275.0 290.6,268.5 291.5,287.7 292.4,299.2 293.3,288.5 294.2,299.7 295.1,288.9 296.0,296.2 296.9,290.1 297.8,277.8 298.7,296.1 299.6,305.3 300.5,305.7 301.5,280.2 302.4,306.7 303.3,307.6 304.2,312.1 305.1,314.3 306.0,312.0 306.9,302.5 307.8,295.5 308.7,297.2 309.6,265.3 310.5,282.7 311.4,312.9 312.3,298.7 313.2,306.6 314.1,295.2 315.0,309.9 315.9,286.0 316.8,305.5 317.7,307.8 318.6,299.1 319.5,316.3 320.4,289.6 321.3,275.4 322.2,259.4 323.2,325.2 324.1,299.1 325.0,294.8 325.9,282.5 326.8,295.6 327.7,294.1 328.6,278.0 329.5,327.4 330.4,305.0 331.3,317.5 332.2,301.2 333.1,310.5 334.0,311.9 334.9,286.3 335.8,318.9 336.7,318.9 337.6,289.4 338.5,311.6 339.4,308.2 340.3,294.8 341.2,316.5 342.1,305.9 343.0,342.2 343.9,316.1 344.8,251.3 345.8,258.5 346.7,274.6 347.6,242.5 348.5,275.9 349.4,252.0 350.3,264.7 351.2,268.6 352.1,270.3 353.0,173.8 353.9,157.5 354.8,232.6 355.7,235.0 356.6,196.1 357.5,219.6 358.4,271.4 359.3,224.4 360.2,234.8 361.1,239.7 362.0,260.5 362.9,264.0 363.8,229.2 364.7,217.2 365.6,139.8 366.5,121.7 367.5,150.9 368.4,181.1 369.3,176.8 370.2,152.0 371.1,157.4 372.0,255.6 372.9,241.0 373.8,263.9 374.7,285.1 375.6,235.9 376.5,215.4 377.4,205.5 378.3,193.1 379.2,149.5 380.1,243.0 381.0,238.7 381.9,219.2 382.8,204.4 383.7,227.5 384.6,200.9 385.5,174.2 386.4,229.4 387.3,244.1 388.2,230.7 389.2,197.8 390.1,277.9 391.0,259.3 391.9,246.1 392.8,290.1 393.7,275.1 394.6,280.1 395.5,252.6 396.4,269.8 397.3,271.6 398.2,240.6 399.1,285.6 400.0,264.4 400.9,281.8 401.8,242.7 402.7,224.6 403.6,235.6 404.5,230.0 405.4,264.0 406.3,239.3 407.2,247.1 408.1,271.5 409.0,288.2 409.9,295.8 410.8,277.3 411.8,294.8 412.7,296.1 413.6,301.8 414.5,273.3 415.4,278.5 416.3,252.9 417.2,240.2 418.1,286.8 419.0,276.4 419.9,262.5 420.8,287.1 421.7,286.1 422.6,286.2 423.5,271.4 424.4,270.5 425.3,296.1 426.2,302.2 427.1,275.5 428.0,265.0 428.9,265.5 429.8,277.8 430.7,308.2 431.6,289.7 432.5,296.2 433.5,296.7 434.4,313.2 435.3,269.1 436.2,255.1 437.1,278.7 438.0,251.1 438.9,289.9 439.8,274.7 440.7,259.3 441.6,308.2 442.5,307.5 443.4,286.8 444.3,311.1 445.2,302.5 446.1,278.3 447.0,283.4 447.9,307.8 448.8,261.5 449.7,296.9 450.6,304.6 451.5,297.9 452.4,296.6 453.3,288.2 454.2,261.5 455.2,263.9 456.1,283.7 457.0,269.6 457.9,293.6 458.8,287.4 459.7,309.9 460.6,253.2 461.5,290.2 462.4,308.3 463.3,313.3 464.2,291.5 465.1,299.8 466.0,270.7 466.9,265.5 467.8,303.4 468.7,288.0 469.6,296.4 470.5,295.0 471.4,275.9 472.3,273.6 473.2,243.4 474.1,249.6 475.0,282.3 475.9,263.3 476.8,269.1 477.8,269.3 478.7,298.7 479.6,262.7 480.5,271.9 481.4,281.9 482.3,295.4 483.2,302.9 484.1,290.4 485.0,296.3 485.9,289.7 486.8,276.9 487.7,316.3 488.6,296.8 489.5,326.9 490.4,298.4 491.3,302.5 492.2,278.3 493.1,294.5 494.0,315.2 494.9,311.4 495.8,314.7 496.7,316.2 497.6,279.7 498.5,286.3 499.5,274.3 500.4,316.4 501.3,290.1 502.2,294.7 503.1,311.7 504.0,286.0 504.9,289.6 505.8,284.7 506.7,315.3 507.6,308.5 508.5,290.4 509.4,279.0 510.3,301.6 511.2,287.8 512.1,276.8 513.0,276.3 513.9,277.6 514.8,323.4 515.7,284.1 516.6,267.4 517.5,276.8 518.4,270.3 519.3,289.0 520.2,278.1 521.2,259.9 522.1,300.4 523.0,282.1 523.9,272.7 524.8,246.9 525.7,327.1 526.6,300.5 527.5,304.8 528.4,255.2 529.3,304.2 530.2,239.5 531.1,237.1 532.0,258.6 532.9,259.1 533.8,253.2 534.7,261.5 535.6,239.7 536.5,233.4 537.4,278.5 538.3,305.7 539.2,278.7 540.1,301.1 541.0,283.7 541.9,312.5 542.8,277.3 543.8,288.8 544.7,284.1 545.6,292.4 546.5,286.2 547.4,271.4 548.3,255.2 549.2,284.7 550.1,214.1 551.0,268.5 551.9,242.7 552.8,267.6 553.7,228.6 554.6,227.9 555.5,234.8 556.4,219.5 557.3,268.7 558.2,241.9 559.1,243.8 560.0,245.6 560.9,250.9 561.8,240.0 562.7,229.3 563.6,257.8 564.5,258.8 565.5,260.3 566.4,241.6 567.3,217.4 568.2,236.6 569.1,217.7 570.0,265.6 570.9,272.0 571.8,271.9 572.7,277.2 573.6,280.8 574.5,275.9 575.4,280.2 576.3,279.7 577.2,275.8 578.1,304.2 579.0,272.0 579.9,288.9 580.8,268.2 581.7,266.3 582.6,283.4 583.5,306.3 584.4,299.3 585.3,253.1 586.2,286.9 587.2,284.1 588.1,272.5 589.0,298.5 589.9,296.5 590.8,299.1 591.7,282.0 592.6,291.1 593.5,282.9 594.4,255.0 595.3,293.6 596.2,271.9 597.1,292.0 598.0,292.7 598.9,295.5 599.8,317.5 600.7,277.9 601.6,302.4 602.5,302.2 603.4,307.3 604.3,319.3 605.2,275.3 606.1,294.3 607.0,270.9 607.9,291.3 608.8,291.1 609.8,295.9 610.7,295.8 611.6,312.2 612.5,286.6 613.4,281.3 614.3,314.2 615.2,304.9 616.1,288.6 617.0,270.8 617.9,270.8 618.8,288.9 619.7,301.0 620.6,279.4 621.5,320.5 622.4,282.2 623.3,279.2 624.2,262.8 625.1,258.4 626.0,272.8 626.9,304.9 627.8,300.1 628.7,294.3 629.6,300.0 630.5,297.6 631.5,263.0 632.4,278.6 633.3,291.0 634.2,293.6 635.1,313.5 636.0,296.1 636.9,310.8 637.8,270.8 638.7,278.4 639.6,274.2 640.5,294.5 641.4,309.8 642.3,294.1 643.2,280.6 644.1,286.9 645.0,290.6 645.9,285.2 646.8,313.2 647.7,308.8 648.6,294.7 649.5,290.8 650.4,277.3 651.3,290.1 652.2,287.3 653.2,321.9 654.1,271.3 655.0,288.9 655.9,283.1 656.8,288.7 657.7,286.0 658.6,300.3 659.5,302.8 660.4,283.2 661.3,295.8 662.2,287.6 663.1,290.2 664.0,292.4 664.9,282.7 665.8,303.2 666.7,301.2 667.6,292.9 668.5,276.9 669.4,257.7 670.3,279.0 671.2,294.0 672.1,314.0 673.0,304.1 673.9,298.7 674.8,275.6 675.8,222.0 676.7,223.1 677.6,261.2 678.5,255.2 679.4,252.7 680.3,233.6 681.2,221.9 682.1,242.9 683.0,209.1 683.9,205.9 684.8,195.6 685.7,180.5 686.6,171.9 687.5,182.0 688.4,134.7 689.3,249.5 690.2,255.3 691.1,264.9 692.0,226.1 692.9,218.9 693.8,214.8 694.7,180.5 695.6,155.9 696.5,157.0 697.5,186.1 698.4,134.8 699.3,140.1 700.2,143.8 701.1,101.6 702.0,126.5 702.9,244.4 703.8,254.9 704.7,240.1 705.6,269.0 706.5,212.1 707.4,161.7 708.3,205.9 709.2,192.2 710.1,192.0 711.0,210.5 711.9,187.5 712.8,171.8 713.7,148.7 714.6,150.1 715.5,193.9 716.4,192.2 717.3,201.9 718.2,219.7 719.2,191.5 720.1,157.9 721.0,184.8 721.9,224.7 722.8,260.1 723.7,242.9 724.6,242.2 725.5,234.5 726.4,196.1 727.3,187.7 728.2,254.7 729.1,260.0 730.0,262.4 730.9,228.1 731.8,249.9 732.7,228.8 733.6,237.4 734.5,263.6 735.4,244.5 736.3,267.1 737.2,248.2 738.1,281.1 739.0,259.6 739.9,234.9 740.8,262.8 741.8,289.1 742.7,262.9 743.6,257.9 744.5,273.1 745.4,249.4 746.3,227.5 747.2,268.6 748.1,280.8 749.0,253.0 749.9,233.7 750.8,288.1 751.7,265.6 752.6,244.4 753.5,287.8 754.4,283.5 755.3,254.2 756.2,254.9 757.1,279.7 758.0,253.5 758.9,279.3 759.8,326.4 760.7,314.1 761.6,298.7 762.5,281.7 763.5,285.4 764.4,268.9 765.3,268.8 766.2,316.9 767.1,255.5 768.0,253.2 768.9,242.3 769.8,231.3 770.7,223.9 771.6,271.2 772.5,300.8 773.4,298.1 774.3,291.5 775.2,281.6 776.1,282.1 777.0,258.9 777.9,260.8 778.8,294.5 779.7,280.6 780.6,297.7 781.5,278.9 782.4,312.4 783.3,301.3 784.2,260.4 785.2,289.6 786.1,266.9 787.0,268.4 787.9,271.8 788.8,266.6 789.7,252.2 790.6,260.8 791.5,260.9 792.4,296.6 793.3,276.9 794.2,293.4 795.1,284.1 796.0,273.1 796.9,295.9 797.8,270.7 798.7,279.8 799.6,281.4 800.5,279.0 801.4,256.7 802.3,263.0 803.2,242.0 804.1,251.1 805.0,311.6 805.9,290.6 806.8,249.2 807.8,290.0 808.7,284.3 809.6,279.3 810.5,299.3 811.4,307.5 812.3,329.4 813.2,301.8 814.1,283.2 815.0,286.2 815.9,264.9 816.8,283.4 817.7,310.4 818.6,283.6 819.5,283.3 820.4,273.1 821.3,280.3 822.2,276.0 823.1,274.5 824.0,307.4 824.9,300.9 825.8,284.8 826.7,303.4 827.6,256.5 828.5,287.2 829.5,319.4 830.4,302.4 831.3,296.4 832.2,290.3 833.1,284.0 834.0,295.0 834.9,271.4 835.8,303.2 836.7,280.8 837.6,288.9 838.5,283.0 839.4,249.4 840.3,280.5 841.2,280.0 842.1,278.9 843.0,283.5 843.9,305.1 844.8,251.3 845.7,236.8 846.6,276.5 847.5,217.7 848.4,293.5 849.3,277.5 850.2,288.8 851.2,272.6 852.1,258.6 853.0,273.6 853.9,269.5 854.8,290.5 855.7,276.4 856.6,307.4 857.5,291.1 858.4,287.1 859.3,287.7 860.2,237.0 861.1,242.3 862.0,284.6 862.9,236.2 863.8,246.7 864.7,217.1 865.6,214.6 866.5,191.6 867.4,301.5 868.3,299.4 869.2,278.7 870.1,264.1 871.0,287.5 871.9,244.7 872.8,260.2 873.8,281.5 874.7,288.5 875.6,286.7 876.5,242.1 877.4,288.3 878.3,247.7 879.2,236.0 880.1,246.0 881.0,244.9 881.9,247.2 882.8,251.5 883.7,238.9 884.6,205.9 885.5,208.0 886.4,226.9 887.3,248.9 888.2,249.3 889.1,227.4 890.0,248.1 890.9,230.2 891.8,232.0 892.7,253.8 893.6,255.3 894.5,245.1 895.5,235.9 896.4,238.6 897.3,221.4 898.2,208.2 899.1,231.0 900.0,234.0 900.9,241.1 901.8,295.7 902.7,289.5 903.6,263.7 904.5,247.7 905.4,277.8 906.3,287.3 907.2,294.2 908.1,273.0 909.0,278.0 909.9,233.9 910.8,263.4 911.7,301.4 912.6,290.5 913.5,278.5 914.4,278.6 915.3,292.1 916.2,259.1 917.2,275.2 918.1,293.7 919.0,265.3 919.9,273.3 920.8,274.9 921.7,292.7 922.6,281.0 923.5,265.5 924.4,279.4 925.3,288.5 926.2,283.5 927.1,295.0 928.0,253.3 928.9,286.4 929.8,246.8 930.7,291.7 931.6,320.4 932.5,267.1 933.4,268.5 934.3,275.4 935.2,264.6 936.1,285.1 937.0,302.7 937.9,288.3 938.8,269.0 939.8,274.2 940.7,285.5 941.6,274.0 942.5,267.7 943.4,282.9 944.3,288.5 945.2,297.2 946.1,308.5 947.0,280.9 947.9,256.6 948.8,265.4 949.7,292.0 950.6,287.5 951.5,288.0 952.4,271.8 953.3,267.8 954.2,251.3 955.1,228.9 956.0,283.9 956.9,283.0 957.8,309.4 958.7,301.8 959.6,257.5 960.5,305.4 961.5,250.2 962.4,263.8 963.3,298.8 964.2,290.3 965.1,275.0 966.0,270.3 966.9,276.6 967.8,258.8 968.7,265.0 969.6,293.8 970.5,298.3 971.4,287.7 972.3,272.8 973.2,280.6 974.1,279.0 975.0,293.3 975.9,296.7 976.8,267.9 977.7,269.9 978.6,283.7 979.5,231.9 980.4,256.7 981.3,253.7 982.2,302.9 983.2,273.8 984.1,295.3 985.0,257.1 985.9,273.2 986.8,265.8 987.7,251.1 988.6,300.2 989.5,294.2 990.4,256.1 991.3,289.4 992.2,275.0 993.1,263.7 994.0,290.6 994.9,311.9 995.8,288.6 996.7,261.7 997.6,287.5 998.5,278.6 999.4,261.0 1000.3,295.9 1001.2,281.8 1002.1,271.8 1003.0,284.2 1003.9,299.4 1004.8,294.2 1005.8,191.8 1006.7,210.3 1007.6,234.4 1008.5,249.3 1009.4,228.6 1010.3,179.3 1011.2,209.3 1012.1,212.1 1013.0,259.2 1013.9,170.7 1014.8,175.7 1015.7,194.8 1016.6,151.7 1017.5,141.8 1018.4,127.5 1019.3,222.0 1020.2,258.3 1021.1,244.3 1022.0,235.4 1022.9,191.2 1023.8,176.4 1024.7,143.6 1025.6,185.8 1026.5,135.0 1027.5,155.8 1028.4,144.2 1029.3,109.9 1030.2,72.4 1031.1,50.0 1032.0,147.9 1032.9,259.3 1033.8,229.7 1034.7,243.5 1035.6,205.1 1036.5,153.7 1037.4,121.8 1038.3,195.3 1039.2,189.8 1040.1,196.6 1041.0,165.9 1041.9,103.4 1042.8,128.0 1043.7,147.1 1044.6,195.7 1045.5,207.8 1046.4,179.8 1047.3,176.3 1048.2,150.5 1049.2,153.2 1050.1,147.6 1051.0,253.8 1051.9,241.7 1052.8,278.9 1053.7,263.3 1054.6,263.1 1055.5,176.7 1056.4,235.7 1057.3,243.9 1058.2,240.6 1059.1,219.2 1060.0,241.7"/>
        
        <line x1="70" y1="370" x2="1060" y2="370" stroke="#333"/>
        <line x1="70" y1="50" x2="70" y2="370" stroke="#333"/>
        <text x="70.0" y="395" text-anchor="middle" font-size="11">2023-01-01</text><text x="317.7" y="395" text-anchor="middle" font-size="11">2023-10-02</text><text x="565.5" y="395" text-anchor="middle" font-size="11">2024-07-02</text><text x="813.2" y="395" text-anchor="middle" font-size="11">2025-04-02</text><text x="1060.0" y="395" text-anchor="middle" font-size="11">2025-12-31</text>
        <text x="70" y="425" fill="#1f77b4" font-weight="bold" font-size="12">● Actual</text>
    </svg>
    