<svg xmlns="http://www.w3.org/2000/svg" width="1200" height="430" viewBox="0 0 1200 430">
<rect width="100%" height="100%" fill="#ffffff"/>
<text x="86" y="30" font-size="20" font-family="Arial" font-weight="700">Monthly Total Sales</text>
<line x1="86" y1="326" x2="1176" y2="326" stroke="#333"/>
<line x1="86" y1="52" x2="86" y2="326" stroke="#333"/>
<text x="78" y="56" text-anchor="end" font-size="11">$722,168</text>
<rect x="86.0" y="211.9" width="20.6" height="114.1" fill="#1f77b4"/><rect x="116.6" y="231.2" width="20.6" height="94.8" fill="#2ca02c"/><rect x="147.1" y="215.5" width="20.6" height="110.5" fill="#ff7f0e"/><rect x="177.7" y="240.1" width="20.6" height="85.9" fill="#9467bd"/><rect x="208.2" y="212.7" width="20.6" height="113.3" fill="#17becf"/><rect x="238.8" y="196.9" width="20.6" height="129.1" fill="#8c564b"/><rect x="269.3" y="206.1" width="20.6" height="119.9" fill="#d62728"/><rect x="299.9" y="223.8" width="20.6" height="102.2" fill="#1f77b4"/><rect x="330.4" y="218.4" width="20.6" height="107.6" fill="#2ca02c"/><rect x="361.0" y="226.6" width="20.6" height="99.4" fill="#ff7f0e"/><rect x="391.6" y="109.1" width="20.6" height="216.9" fill="#9467bd"/><rect x="422.1" y="130.2" width="20.6" height="195.8" fill="#17becf"/><rect x="452.7" y="178.2" width="20.6" height="147.8" fill="#8c564b"/><rect x="483.2" y="210.0" width="20.6" height="116.0" fill="#d62728"/><rect x="513.8" y="192.0" width="20.6" height="134.0" fill="#1f77b4"/><rect x="544.3" y="222.5" width="20.6" height="103.5" fill="#2ca02c"/><rect x="574.9" y="184.2" width="20.6" height="141.8" fill="#ff7f0e"/><rect x="605.4" y="171.1" width="20.6" height="154.9" fill="#9467bd"/><rect x="636.0" y="181.7" width="20.6" height="144.3" fill="#17becf"/><rect x="666.6" y="208.8" width="20.6" height="117.2" fill="#8c564b"/><rect x="697.1" y="209.4" width="20.6" height="116.6" fill="#d62728"/><rect x="727.7" y="208.1" width="20.6" height="117.9" fill="#1f77b4"/><rect x="758.2" y="78.0" width="20.6" height="248.0" fill="#2ca02c"/><rect x="788.8" y="89.1" width="20.6" height="236.9" fill="#ff7f0e"/><rect x="819.3" y="159.6" width="20.6" height="166.4" fill="#9467bd"/><rect x="849.9" y="205.5" width="20.6" height="120.5" fill="#17becf"/><rect x="880.4" y="185.6" width="20.6" height="140.4" fill="#8c564b"/><rect x="911.0" y="209.7" width="20.6" height="116.3" fill="#d62728"/><rect x="941.6" y="168.8" width="20.6" height="157.2" fill="#1f77b4"/><rect x="972.1" y="158.5" width="20.6" height="167.5" fill="#2ca02c"/><rect x="1002.7" y="170.2" width="20.6" height="155.8" fill="#ff7f0e"/><rect x="1033.2" y="191.9" width="20.6" height="134.1" fill="#9467bd"/><rect x="1063.8" y="193.9" width="20.6" height="132.1" fill="#17becf"/><rect x="1094.3" y="187.9" width="20.6" height="138.1" fill="#8c564b"/><rect x="1124.9" y="52.0" width="20.6" height="274.0" fill="#d62728"/><rect x="1155.4" y="72.7" width="20.6" height="253.3" fill="#1f77b4"/>
<text transform="translate(96.3,348) rotate(-35)" text-anchor="end" font-size="11">2023-01-01</text><text transform="translate(126.8,348) rotate(-35)" text-anchor="end" font-size="11">2023-02-01</text><text transform="translate(157.4,348) rotate(-35)" text-anchor="end" font-size="11">2023-03-01</text><text transform="translate(187.9,348) rotate(-35)" text-anchor="end" font-size="11">2023-04-01</text><text transform="translate(218.5,348) rotate(-35)" text-anchor="end" font-size="11">2023-05-01</text><text transform="translate(249.1,348) rotate(-35)" text-anchor="end" font-size="11">2023-06-01</text><text transform="translate(279.6,348) rotate(-35)" text-anchor="end" font-size="11">2023-07-01</text><text transform="translate(310.2,348) rotate(-35)" text-anchor="end" font-size="11">2023-08-01</text><text transform="translate(340.7,348) rotate(-35)" text-anchor="end" font-size="11">2023-09-01</text><text transform="translate(371.3,348) rotate(-35)" text-anchor="end" font-size="11">2023-10-01</text><text transform="translate(401.8,348) rotate(-35)" text-anchor="end" font-size="11">2023-11-01</text><text transform="translate(432.4,348) rotate(-35)" text-anchor="end" font-size="11">2023-12-01</text><text transform="translate(462.9,348) rotate(-35)" text-anchor="end" font-size="11">2024-01-01</text><text transform="translate(493.5,348) rotate(-35)" text-anchor="end" font-size="11">2024-02-01</text><text transform="translate(524.1,348) rotate(-35)" text-anchor="end" font-size="11">2024-03-01</text><text transform="translate(554.6,348) rotate(-35)" text-anchor="end" font-size="11">2024-04-01</text><text transform="translate(585.2,348) rotate(-35)" text-anchor="end" font-size="11">2024-05-01</text><text transform="translate(615.7,348) rotate(-35)" text-anchor="end" font-size="11">2024-06-01</text><text transform="translate(646.3,348) rotate(-35)" text-anchor="end" font-size="11">2024-07-01</text><text transform="translate(676.8,348) rotate(-35)" text-anchor="end" font-size="11">2024-08-01</text><text transform="translate(707.4,348) rotate(-35)" text-anchor="end" font-size="11">2024-09-01</text><text transform="translate(737.9,348) rotate(-35)" text-anchor="end" font-size="11">2024-10-01</text><text transform="translate(768.5,348) rotate(-35)" text-anchor="end" font-size="11">2024-11-01</text><text transform="translate(799.1,348) rotate(-35)" text-anchor="end" font-size="11">2024-12-01</text><text transform="translate(829.6,348) rotate(-35)" text-anchor="end" font-size="11">2025-01-01</text><text transform="translate(860.2,348) rotate(-35)" text-anchor="end" font-size="11">2025-02-01</text><text transform="translate(890.7,348) rotate(-35)" text-anchor="end" font-size="11">2025-03-01</text><text transform="translate(921.3,348) rotate(-35)" text-anchor="end" font-size="11">2025-04-01</text><text transform="translate(951.8,348) rotate(-35)" text-anchor="end" font-size="11">2025-05-01</text><text transform="translate(982.4,348) rotate(-35)" text-anchor="end" font-size="11">2025-06-01</text><text transform="translate(1012.9,348) rotate(-35)" text-anchor="end" font-size="11">2025-07-01</text><text transform="translate(1043.5,348) rotate(-35)" text-anchor="end" font-size="11">2025-08-01</text><text transform="translate(1074.1,348) rotate(-35)" text-anchor="end" font-size="11">2025-09-01</text><text transform="translate(1104.6,348) rotate(-35)" text-anchor="end" font-size="11">2025-10-01</text><text transform="translate(1135.2,348) rotate(-35)" text-anchor="end" font-size="11">2025-11-01</text><text transform="translate(1165.7,348) rotate(-35)" text-anchor="end" font-size="11">2025-12-01</text>
</svg>
