
    <svg xmlns="http://www.w3.org/2000/svg" width="1100" height="450">
        <rect width="100%" height="100%" fill="white"/>
        <text x="70" y="30" font-size="18" font-family="Arial" font-weight="700">Model Comparison: Actual vs Forecasts (Test Period)</text>
        <line x1="70" y1="50.0" x2="1060" y2="50.0" stroke="#e8e8e8"/><text x="62" y="54.0" text-anchor="end" font-size="11">$722,168</text><line x1="70" y1="130.0" x2="1060" y2="130.0" stroke="#e8e8e8"/><text x="62" y="134.0" text-anchor="end" font-size="11">$618,479</text><line x1="70" y1="210.0" x2="1060" y2="210.0" stroke="#e8e8e8"/><text x="62" y="214.0" text-anchor="end" font-size="11">$514,789</text><line x1="70" y1="290.0" x2="1060" y2="290.0" stroke="#e8e8e8"/><text x="62" y="294.0" text-anchor="end" font-size="11">$411,100</text><line x1="70" y1="370.0" x2="1060" y2="370.0" stroke="#e8e8e8"/><text x="62" y="374.0" text-anchor="end" font-size="11">$307,410</text>
        <polyline fill="none" stroke="#1f77b4" stroke-width="3" points="70.0,290.5 268.0,334.6 466.0,338.5 664.0,326.3 862.0,50.0 1060.0,92.1"/>
        <polyline fill="none" stroke="#ff7f0e" stroke-width="2.5" stroke-dasharray="5 3" points="70.0,313.8 268.0,368.8 466.0,370.0 664.0,367.5 862.0,102.9 1060.0,125.4"/><polyline fill="none" stroke="#2ca02c" stroke-width="2.5" stroke-dasharray="5 3" points="70.0,267.8 268.0,267.7 466.0,267.7 664.0,267.7 862.0,267.7 1060.0,267.7"/><polyline fill="none" stroke="#9467bd" stroke-width="2.5" stroke-dasharray="5 3" points="70.0,279.2 268.0,312.7 466.0,298.7 664.0,311.1 862.0,67.8 1060.0,107.0"/>
        <line x1="70" y1="370" x2="1060" y2="370" stroke="#333"/>
        <line x1="70" y1="50" x2="70" y2="370" stroke="#333"/>
        <text x="70.0" y="395" text-anchor="middle" font-size="11">2025-07-01</text><text x="268.0" y="395" text-anchor="middle" font-size="11">2025-08-01</text><text x="664.0" y="395" text-anchor="middle" font-size="11">2025-10-01</text><text x="862.0" y="395" text-anchor="middle" font-size="11">2025-11-01</text><text x="1060.0" y="395" text-anchor="middle" font-size="11">2025-12-01</text>
        <text x="70" y="425" fill="#1f77b4" font-weight="bold" font-size="12">● Actual</text><text x="190" y="425" fill="#ff7f0e" font-weight="bold" font-size="12">● Seasonal Naive</text><text x="370" y="425" fill="#2ca02c" font-weight="bold" font-size="12">● ARIMA</text><text x="550" y="425" fill="#9467bd" font-weight="bold" font-size="12">● Holt-Winters</text>
    </svg>
    